<?xml version="1.0" encoding="UTF-8"?>
<svg id="Layer_2" data-name="Layer 2" xmlns="http://www.w3.org/2000/svg" viewBox="0 0 345.8 87.18">
  <defs>
    <style>
      .cls-1 {
        fill: #010101;
      }

      .cls-2 {
        fill: #68b1e2;
      }

      .cls-3 {
        fill: #f0f7ef;
      }

      .cls-4 {
        fill: #ffc70c;
      }

      .cls-5 {
        fill: #97c5ea;
      }

      .cls-6 {
        fill: #2fa1db;
      }

      .cls-7 {
        fill: #c4ddf3;
      }

      .cls-8 {
        fill: #231f20;
      }

      .cls-9 {
        fill: #1aaf4b;
      }

      .cls-10 {
        fill: #87bde7;
      }
    </style>
  </defs>
  <g id="Layer_1-2" data-name="Layer 1">
    <g>
      <g>
        <path class="cls-1" d="M252.08,10.66c5.54,0,11.07,0,16.61,0,.32,0,.39,.08,.39,.39,0,8.23,0,16.47-.02,24.7,0,.35,.09,.42,.43,.42,8.21-.01,16.43,0,24.64-.02,.35,0,.42,.09,.42,.43-.01,11.06-.01,22.11,0,33.17,0,.35-.09,.42-.43,.42-2.58-.02-5.16-.01-7.75,0-.3,0-.37-.09-.37-.38,0-8.23,0-16.47,.01-24.7,0-.35-.08-.43-.43-.42-8.21,.01-16.43,0-24.64,.02-.35,0-.42-.08-.42-.43,.01-8.22,0-16.45,.02-24.67,0-.32-.08-.4-.4-.4-8.23,0-16.45,0-24.68,.02-.34,0-.43-.07-.43-.42,.02-2.56,.02-5.12,0-7.67,0-.39,.12-.45,.47-.45,5.52,.01,11.05,0,16.57,0Z"/>
        <path class="cls-1" d="M252.04,70.16c-5.53,0-11.07,0-16.6,0-.31,0-.4-.07-.39-.39,0-11.08,0-22.16,0-33.23,0-.32,.07-.39,.39-.39,2.58,.01,5.16,.02,7.75,0,.36,0,.42,.11,.42,.44,0,8.2,0,16.4-.02,24.59,0,.36,.06,.47,.45,.47,8.21-.01,16.42,0,24.64-.02,.32,0,.41,.06,.41,.4-.02,2.58-.02,5.16,0,7.74,0,.33-.09,.39-.4,.39-5.55,0-11.09,0-16.64,0Z"/>
        <g>
          <path class="cls-8" d="M303.29,44.22c.66-.01,1.32-.02,1.97,0,.28,.01,.33-.09,.32-.34-.01-1.34,0-2.68,0-4.02,0-.47,.06-.93,.35-1.32,.31-.43,.75-.51,1.24-.42,.43,.08,.63,.38,.73,.79,.04,.18,.05,.35,.05,.53,0,1.49,0,2.99,0,4.48,0,.24,.07,.3,.3,.3,.66-.02,1.32-.02,1.97,0,.25,0,.32-.05,.32-.31-.01-1.34-.01-2.68,0-4.02,0-.26,.02-.53,.08-.78,.13-.63,.61-1.04,1.19-1.03,.59,0,.94,.3,1.07,.94,.03,.15,.03,.31,.03,.46,0,1.48,0,2.96,0,4.45,0,.2,.02,.3,.26,.29,.69-.02,1.39-.01,2.08,0,.19,0,.24-.05,.24-.24,0-1.8,.03-3.61-.02-5.41-.03-1.09-.47-2.01-1.56-2.44-1.12-.45-2.6-.24-3.46,.88-.07,.1-.12,.23-.25,.28-.76-1.65-3.38-1.99-4.71-.04,0-.31-.01-.57,0-.82,.01-.21-.06-.27-.26-.26-.66,.01-1.31,.01-1.97,0-.21,0-.26,.06-.26,.26,0,2.51,0,5.02,0,7.53,0,.24,.09,.27,.29,.27Z"/>
          <path class="cls-8" d="M307.26,50.3c.46,.15,.7,.54,.7,1.17,0,1.52,.01,3.04,0,4.55,0,.29,.09,.35,.36,.35,.63-.02,1.27-.02,1.9,0,.27,0,.34-.06,.33-.33-.02-1.35,0-2.7,0-4.05,0-.45,.06-.88,.32-1.26,.29-.43,.71-.55,1.19-.47,.45,.07,.7,.36,.8,.8,.04,.19,.05,.38,.05,.57,0,1.48,0,2.96,0,4.45,0,.24,.07,.3,.3,.3,.68-.02,1.36-.01,2.04,0,.18,0,.24-.04,.24-.23,0-1.8,.03-3.61-.02-5.41-.03-1.04-.43-1.96-1.46-2.39-1.11-.46-2.19-.35-3.16,.42-.25,.2-.42,.47-.64,.71-.79-1.71-3.43-1.96-4.71-.03,0-.32-.02-.56,0-.8s-.05-.33-.31-.32c-.62,.02-1.24,.02-1.86,0-.24,0-.32,.05-.32,.31,.01,2.49,.01,4.97,0,7.46,0,.25,.08,.29,.31,.29,.66-.01,1.32-.02,1.97,0,.25,0,.31-.06,.31-.31-.01-1.33,0-2.65,0-3.98,0-.26,.02-.53,.07-.78,.16-.81,.86-1.23,1.59-.99Z"/>
          <path class="cls-8" d="M333.12,45.12c-.64,.02-1.29,.02-1.94,0-.23,0-.31,.05-.3,.29,.02,.55,0,1.1,0,1.65v2.08c-.15-.05-.19-.15-.27-.23-.35-.35-.73-.65-1.23-.75-1.39-.27-2.55,.09-3.42,1.23-1.14,1.49-1.17,4.23-.13,5.78,1.13,1.69,3.91,2.05,5.15,.14,0,.31,.01,.54,0,.76-.02,.22,.05,.29,.27,.28,.62-.02,1.24-.02,1.86,0,.28,0,.36-.06,.36-.35-.02-1.53,0-3.06,0-4.59,0-1.98,0-3.97,0-5.95,0-.29-.09-.36-.36-.35Zm-2.5,8.61c-.32,.58-.81,.86-1.47,.81-.6-.04-.99-.38-1.2-.92-.35-.89-.35-1.79,.02-2.68,.25-.59,.7-.93,1.36-.92,.66,.01,1.11,.37,1.37,.97,.18,.41,.24,.84,.22,1.31,.03,.49-.06,.97-.3,1.43Z"/>
          <path class="cls-8" d="M319.19,62.01c-.54,.16-.94,.52-1.35,.99v-.42c0-1.11,0-2.22,0-3.33,0-.25-.06-.33-.32-.32-.67,.02-1.34,.01-2.01,0-.19,0-.27,.03-.27,.25,0,3.58,0,7.17,0,10.76,0,.18,.03,.25,.23,.25,.67-.01,1.34,0,2.01,0,.17,0,.23-.04,.22-.22-.01-.24,0-.48,0-.77,.19,.21,.33,.39,.5,.54,1.3,1.13,3.54,.83,4.57-.61,1.09-1.54,1.1-4.31,.01-5.86-.83-1.18-2.24-1.67-3.59-1.26Zm1.54,5.46c-.45,1.05-1.8,1.22-2.5,.32-.65-.84-.63-2.61,.05-3.43,.6-.73,1.8-.66,2.3,.14,.32,.5,.4,1.06,.38,1.66,.02,.44-.04,.89-.22,1.31Z"/>
          <path class="cls-8" d="M324.37,51.62c-.5-2.8-2.72-3.97-5.14-3.42-1.84,.42-3.02,2.02-3.05,4.03-.02,1.28,.34,2.44,1.32,3.31,1.23,1.08,2.69,1.27,4.22,.89,1.2-.29,2.08-1.02,2.54-2.2,.09-.22,.06-.32-.21-.31-.67,.02-1.34,0-2.01,0-.13,0-.23,.01-.3,.14-.34,.65-1.1,.79-1.85,.57-.78-.23-1.01-.87-1.17-1.57,.14-.07,.27-.04,.4-.04,1.67,0,3.35,0,5.02,0,.28,0,.36-.08,.33-.34-.04-.35-.04-.72-.11-1.07Zm-5.61-.18c.12-.94,.66-1.48,1.47-1.51,.92-.03,1.42,.42,1.62,1.51h-3.09Z"/>
          <path class="cls-8" d="M345.74,56.18c-.17-.2-.2-.45-.2-.7,0-1.49,0-2.99-.01-4.48,0-1.39-.67-2.33-2-2.7-1.1-.31-2.22-.31-3.31,.05-1.08,.36-1.77,1.08-1.96,2.23-.02,.14-.1,.32,.18,.31,.67-.01,1.34,0,2.01,0,.13,0,.18-.06,.22-.18,.27-.79,1.22-1.15,1.94-.72,.29,.17,.39,.43,.37,.76-.02,.3-.23,.42-.48,.51-.44,.16-.9,.22-1.36,.28-.69,.09-1.37,.19-2,.5-.94,.47-1.34,1.26-1.25,2.28,.08,.98,.55,1.71,1.5,2.02,1.35,.43,2.61,.35,3.63-.83,.06,.22,.11,.42,.17,.63,.04,.13,.1,.23,.27,.23,.73,0,1.46,0,2.19,0,.13,0,.23-.03,.1-.18Zm-2.71-2.65c0,.55-.26,.96-.76,1.19-.54,.25-1.11,.3-1.63-.05-.41-.27-.38-1.02,.04-1.3,.16-.11,.35-.2,.54-.26,.58-.19,1.19-.29,1.81-.55,0,.36,0,.66,0,.96Z"/>
          <path class="cls-8" d="M314.12,69.02c0-1.45,0-2.89,0-4.34,0-1.25-.66-2.18-1.85-2.55-1.23-.37-2.47-.38-3.68,.09-.99,.39-1.6,1.12-1.74,2.21-.02,.17,0,.24,.18,.24,.67,0,1.34,0,2.01,0,.09,0,.16,0,.21-.13,.3-.79,1.03-1.11,1.83-.81,.3,.11,.52,.44,.51,.75s-.21,.5-.5,.59c-.36,.12-.74,.18-1.11,.24-.67,.09-1.35,.17-1.98,.42-.94,.37-1.5,1.04-1.52,2.08-.02,.95,.31,1.75,1.19,2.2,1.06,.55,2.93,.6,3.96-.7,.07,.25,.12,.45,.18,.65,.04,.11,.08,.22,.24,.21,.74,0,1.48,0,2.22,0,.13,0,.19-.07,.1-.17-.25-.29-.24-.64-.24-.98Zm-2.49-1.75c0,.71-.35,1.16-1.03,1.35-.36,.1-.72,.1-1.09-.01-.36-.11-.52-.37-.55-.71-.03-.33,.1-.61,.4-.78,.26-.15,.54-.24,.83-.31,.47-.12,.94-.23,1.44-.43,0,.33,0,.61,0,.9Z"/>
          <path class="cls-8" d="M323.81,37.78c.32,.01,.65,0,.97,0,.09,0,.22,.03,.22-.11,0-.49,.13-1.02-.06-1.44-.1-.21-.62-.04-.95-.06-.05,0-.1,0-.14,0-.26,.04-.32-.08-.31-.32,.01-.66,0-1.31,0-1.97,0-.19-.04-.27-.25-.27-.67,.01-1.34,.02-2.01,0-.23,0-.28,.07-.28,.28,.01,.67,0,1.34,.01,2.01,0,.23-.07,.28-.28,.28-.79,0-.79,.01-.79,.8s0,.81,.78,.8c.26,0,.29,.09,.29,.31-.01,.69,0,1.39,0,2.08,0,.67-.01,1.34,0,2.01,.02,1.1,.54,1.81,1.51,2.02,.75,.16,1.52,.13,2.28,.03,.18-.02,.21-.11,.21-.27,0-.35,0-.69,0-1.04q0-.62-.63-.63c-.59,0-.83-.21-.83-.78-.01-1.16,0-2.32,0-3.48,0-.22,.09-.26,.28-.25Z"/>
          <path class="cls-8" d="M305.64,59.25c0-.24-.05-.33-.31-.33-.68,.02-1.36,.01-2.04,0-.21,0-.29,.04-.29,.27,0,3.57,0,7.14,0,10.72,0,.23,.08,.27,.29,.27,.68-.01,1.36-.02,2.04,0,.26,0,.31-.08,.31-.33,0-1.77,0-3.54,0-5.3s0-3.54,0-5.3Z"/>
          <path class="cls-8" d="M336.78,48.31c-.67,.01-1.34,.02-2.01,0-.27,0-.34,.06-.34,.33,.02,1.23,0,2.46,0,3.69s0,2.48,0,3.72c0,.26,.08,.32,.32,.32,.68-.02,1.36-.01,2.04,0,.2,0,.27-.05,.27-.26,0-2.51,0-5.01,0-7.52,0-.22-.07-.28-.28-.28Z"/>
          <path class="cls-8" d="M316.88,44.22c.66-.01,1.31-.02,1.97,0,.25,0,.32-.07,.32-.32-.01-1.23,0-2.46,0-3.69s0-2.51,0-3.76c0-.2-.02-.3-.27-.29-.68,.02-1.36,.01-2.04,0-.21,0-.29,.05-.29,.28,0,2.5,0,4.99,0,7.49,0,.25,.09,.29,.31,.29Z"/>
          <path class="cls-8" d="M316.82,35.1c.7,0,1.41,0,2.11,0,.16,0,.24-.04,.24-.22,0-.56,0-1.12,0-1.68,0-.17-.05-.23-.23-.23-.36,.01-.71,0-1.07,0s-.69,0-1.04,0c-.17,0-.26,.03-.26,.23,.01,.55,.01,1.1,0,1.64,0,.19,.06,.25,.25,.24Z"/>
          <path class="cls-8" d="M334.66,47.24c.36-.01,.72,0,1.07,0s.72-.01,1.07,0c.21,.01,.26-.07,.25-.27-.01-.52-.01-1.05,0-1.58,0-.2-.05-.27-.26-.27-.7,.01-1.41,0-2.11,0-.18,0-.26,.04-.25,.24,.01,.55,.01,1.1,0,1.65,0,.17,.05,.23,.22,.22Z"/>
        </g>
      </g>
      <g>
        <path class="cls-9" d="M50.67,35.11c2.52-.93,5.11-1.48,7.82-1.44,9.65,.12,17.97,7.76,18.86,17.36,.99,10.62-6.23,19.68-16.87,21.15-.12,.02-.23,.03-.29,.16h-4.51c-2.8-.21-5.38-1.13-7.75-2.6-5.32-3.3-8.39-8.07-9.26-14.25-.03-.18-.08-.35-.12-.53-.08-.39-.05-.79-.07-1.18-.02-.51-.01-1.01,0-1.52,0-.3,0-.59,.04-.89,.07-.32,.17-.63,.15-.96,.52-4.07,2.2-7.59,5-10.58,.9-.96,1.85-1.86,2.89-2.67,.39-.2,.67-.66,1.21-.51,.6,.45,.84,1.16,1.19,1.77,2.17,3.72,4.31,7.47,6.5,11.18,.41,.69,.49,1.24,.03,1.97-.67,1.05-.38,2.71,.49,3.57,.9,.89,2.55,1.06,3.68,.39,1.08-.65,1.6-1.98,1.27-3.28-.3-1.18-1.44-2.18-2.67-2.16-.94,.02-1.45-.37-1.9-1.17-2.28-4.01-4.59-8-6.92-11.98-.19-.33-.43-.66-.36-1.08,.1-.28,.34-.4,.58-.52,.31-.16,.66-.16,.98-.24Z"/>
        <path class="cls-6" d="M0,50.57c.29-1.08,.51-2.19,.88-3.25,2.71-7.85,8.19-12.39,16.44-13.51,3.35-.46,6.57,.13,9.67,1.43,.22,.09,.45,.14,.68,.21,.34-.05,.6,.15,.88,.28,.42,.3,.88,.53,1.32,.81,.26,.14,.52,.28,.75,.47,4.04,2.97,6.78,6.8,7.86,11.75,.15,.67,.31,1.34,.26,2.04,0,.19-.09,.38-.09,.57-.04,.3,.09,.62-.11,.89-.35,.23-.75,.19-1.14,.19-4.53,0-9.07,0-13.6,.01-.89,0-1.51-.24-2.02-1.03-.83-1.28-2.3-1.66-3.64-1.06-1.3,.57-1.91,1.86-1.59,3.36,.22,1.04,1.07,1.9,2.12,2.08,1.2,.21,2.37,.04,3.02-1.08,.57-1,1.34-1.21,2.38-1.2,4.38,.03,8.77,.01,13.15,.02,.44,0,.91-.07,1.32,.18,.23,.38,.06,.79,.12,1.19,.11,.47,.1,.94,.02,1.42-.7,4.01-2.47,7.51-5.32,10.4-2.59,2.63-5.73,4.41-9.35,5.29-.73,.18-1.49,.06-2.2,.31h-4.87c-3.62-.33-6.81-1.71-9.65-3.93-3.54-2.77-5.84-6.35-6.96-10.7-.18-.69-.11-1.42-.33-2.1v-3.24c.15-.42,.15-.84,0-1.26,0-.18,0-.36,0-.54Z"/>
        <path class="cls-2" d="M0,51.11c.3,.42,.27,.84,0,1.26v-1.26Z"/>
        <path class="cls-4" d="M30.39,37.06c-.21-.13-.43-.26-.64-.4-.11-.37,.13-.63,.29-.91,2.34-4.11,4.74-8.19,7.08-12.3,.42-.74,.99-1,1.83-1.03,1.6-.05,2.89-1.5,2.79-3.04-.1-1.65-1.49-2.85-3.23-2.78-1.55,.06-2.79,1.4-2.77,2.97,0,.6,.25,1.11,.55,1.59,.33,.52,.28,.99-.02,1.51-2.41,4.14-4.83,8.28-7.2,12.44-.16,.28-.29,.6-.65,.7-.25-.12-.49-.24-.74-.37-2.66-1.98-4.83-4.37-6.31-7.36C15.57,16.46,22.89,2.39,35.75,.41c12.55-1.93,23.58,8.53,22.24,21.13-.55,5.17-2.87,9.45-6.84,12.82-.23,.19-.45,.39-.68,.59-.14,.3-.45,.37-.7,.51-.13,.23-.4,.25-.6,.38-.34,.52-.82,.81-1.44,.86-.45,0-.56,.61-1.04,.57-2.1,1.33-4.49,1.62-6.87,1.83-2.25,.19-4.48-.17-6.66-.77-.99-.28-1.89-.75-2.76-1.27Z"/>
        <path class="cls-3" d="M49.77,35.46c.15-.28,.46-.36,.7-.51,.07,.05,.13,.11,.2,.16-.27,.19-.55,.36-.9,.35Z"/>
        <path class="cls-5" d="M38.56,53.82c.05-.02,.1-.03,.16-.03,.02,.41,.04,.82,.06,1.23-.06,.02-.12,.04-.18,.07-.01-.42-.03-.85-.04-1.27Z"/>
        <path class="cls-7" d="M38.59,50.73c.1-.11,.19-.21,.29-.32,.03,.31-.01,.61-.14,.9-.07,.06-.13,.05-.16-.03,0-.18,0-.36,0-.54Z"/>
        <path class="cls-10" d="M38.59,51.28c.05,0,.11,.02,.16,.03-.01,.3-.02,.6-.03,.9-.05,0-.1-.01-.15-.03,0-.3,.02-.6,.02-.9Z"/>
        <g>
          <path class="cls-8" d="M128.84,64.46c-.06-1.84-1.21-2.82-3.05-2.75-.84,.03-1.48,.4-2.04,.99-.13,.14-.17,.46-.52,.14-1.7-1.56-2.9-1.55-4.79,.21,.4-1.15-.15-1.18-.8-1.13-.33,.02-.66,.04-.99,0-.58-.08-.7,.19-.69,.72,.02,1.89,0,3.77,0,5.66,0,1.95,0,1.93,1.98,1.93,.54,0,.72-.11,.71-.68-.04-1.41-.04-2.82,.03-4.22,.05-.92,.63-1.46,1.32-1.39,.9,.08,1.08,.74,1.1,1.48,.02,.96,0,1.92,0,2.88,0,2.01,0,1.99,2.03,1.95,.54-.01,.64-.2,.63-.68-.02-1.41-.02-2.82,.02-4.22,.03-.9,.58-1.44,1.3-1.41,.72,.04,1.06,.5,1.07,1.47,0,1.41,0,2.82,0,4.22,0,.21-.14,.56,.23,.58,.75,.04,1.5,.03,2.25,0,.31-.01,.2-.32,.2-.5,0-1.74,.04-3.48-.02-5.21Z"/>
          <path class="cls-8" d="M110.72,61.94c-.5,.23-.83,.91-1.24,.96-.45,.05-.73-.74-1.26-.97-1.18-.52-2.4-.23-3.69,1,.19-.92-.25-1.12-1-1.02-.29,.04-.6,.04-.9,0-.52-.06-.66,.15-.65,.65,.03,1.92,.01,3.84,.01,5.75s0,1.92,1.99,1.9c.56,0,.72-.15,.7-.71-.04-1.38-.03-2.76,0-4.13,.02-.89,.54-1.47,1.25-1.47,.76,0,1.13,.47,1.13,1.5,0,1.38,.02,2.76,0,4.13,0,.47,.07,.67,.62,.68,2.08,.03,2.08,.05,2.08-2,0-.42,0-.84,0-1.26,0-.63-.05-1.27,.04-1.88,.11-.73,.56-1.21,1.35-1.15,.73,.06,1,.56,1,1.25,0,1.02,0,2.04,0,3.06,0,2.02,0,2,2.02,1.98,.5,0,.66-.13,.65-.64-.03-1.71,.01-3.42-.02-5.12-.04-2.17-2.09-3.42-4.08-2.51Z"/>
          <path class="cls-8" d="M99.35,43.78c.85-.46,1.44-1.13,1.75-2.19-.34,0-.58,0-.82,0-.84,.01-1.62-.07-2.39,.58-.8,.68-2.23,.11-2.65-.83-.21-.46-.17-.7,.44-.69,1.35,.03,2.7,.01,4.05,.01,1.67,0,1.69,0,1.36-1.63-.34-1.69-1.27-2.93-3.01-3.31-1.75-.38-3.42-.12-4.67,1.34-1.34,1.57-1.34,4.2-.02,5.81,1.23,1.5,4.05,1.93,5.95,.91Zm-4.11-5.31c.35-.73,.97-1.05,1.74-.99,.86,.08,1.4,.57,1.53,1.58-1.01,0-1.97-.02-2.92,0-.55,.02-.52-.25-.35-.6Z"/>
          <path class="cls-8" d="M167.39,57.14c2.44,.83,4.93-.25,5.58-2.49-.34,0-.67,0-.99,0-.75,.01-1.45-.06-2.14,.57-.77,.7-2.05,.12-2.46-.92-.17-.44-.12-.59,.37-.58,1.29,.02,2.58,0,3.87,0q1.75,0,1.38-1.71c-.47-2.15-2.17-3.49-4.32-3.4-2.16,.09-3.71,1.55-4.07,3.82-.31,2.03,.89,4.06,2.78,4.7Zm.35-6.12c.48-.53,1.09-.58,1.71-.38,.55,.18,.99,.64,.9,1.19-.09,.52-.69,.16-1.05,.25-.14,.04-.3,0-.44,0-.24,0-.48,.02-.71,0-.28-.03-.7,.17-.81-.13-.11-.32,.15-.66,.4-.93Z"/>
          <path class="cls-8" d="M168.67,68.8c0-1.35,0-2.7,0-4.04,0-.8-.19-1.55-.78-2.13-1.45-1.43-5.14-1.19-6.38,.42-.32,.41-.64,.94-.45,1.39,.16,.38,.75,.13,1.15,.15,.59,.02,1.19,.17,1.54-.63,.24-.54,1.47-.6,1.97-.22,.47,.35,.43,.99-.11,1.22-.3,.12-.64,.16-.96,.22-.93,.19-1.91,.19-2.78,.65-.86,.45-1.26,1.17-1.25,2.11,0,.93,.36,1.72,1.25,2.11,1.48,.64,2.9,.59,4.14-.57,.67,1.4,1.89,.41,2.83,.71-.18-.48-.16-.93-.16-1.38Zm-2.55-1.72c-.06,1.23-1.12,1.95-2.27,1.57-.33-.11-.59-.28-.62-.67-.04-.38,.03-.7,.41-.91,.69-.38,1.48-.45,2.22-.63,.48-.12,.15,.44,.27,.64Z"/>
          <path class="cls-8" d="M129.95,54.07c-.01,1.3,.27,2.45,1.58,3.05,1.26,.58,2.53,.31,3.86-.93-.19,.95,.25,1.05,.88,.99,.33-.03,.66-.03,.99,0,.51,.06,.66-.14,.66-.65-.03-1.95-.01-3.89-.01-5.84s0-1.85-1.87-1.86c-.65,0-.8,.2-.79,.82,.03,1.41,.02,2.81-.06,4.22-.04,.85-.61,1.27-1.44,1.24-.85-.04-1.12-.56-1.12-1.32,0-.99,0-1.98,0-2.96,0-2.05,0-2.03-2.02-1.99-.5,.01-.67,.14-.66,.66,.03,1.53,.02,3.05,0,4.58Z"/>
          <path class="cls-8" d="M196.09,69.71c0-1.77,.03-3.53-.02-5.3-.04-1.31-.8-2.31-1.97-2.6-1.27-.32-2.42-.05-3.43,1.04,.21-.87-.19-1-.83-.94-.39,.04-.78,.04-1.17,0-.52-.05-.67,.15-.66,.66,.03,1.89,.01,3.77,.01,5.66,0,2.02,0,1.99,2.01,1.99,.58,0,.69-.17,.68-.71-.03-1.38-.05-2.76,.04-4.13,.06-.97,.71-1.53,1.48-1.47,.76,.05,1.16,.59,1.17,1.61,0,1.35,0,2.69,0,4.04,0,.27-.13,.69,.37,.63,.76-.09,1.57,.29,2.29-.22,.04-.03,.01-.17,.01-.26Z"/>
          <path class="cls-8" d="M121.71,44.13c1.27-.39,2.2-1.14,2.58-2.54-.43,0-.79,0-1.14,0-.69,.01-1.33-.06-1.95,.54-.73,.71-2.06,.18-2.5-.82-.23-.53-.11-.67,.45-.66,1.56,.03,3.12-.01,4.68,.02,.53,0,.71-.16,.61-.67-.05-.26-.05-.54-.1-.8-.53-3.23-4.15-4.75-6.73-2.83-1.7,1.26-2.24,3.78-1.22,5.73,.96,1.84,3.19,2.69,5.33,2.03Zm-2.82-5.99c.66-.99,2.13-.87,2.66,.2,.25,.5,.21,.79-.45,.72-.33-.03-.66,0-.99,0-.24,0-.48,.02-.72,0-.26-.02-.6,.15-.75-.1-.16-.28,.09-.57,.25-.81Z"/>
          <path class="cls-8" d="M137.9,63.57c0-1.66,0-1.6-1.69-1.68-.83-.04-1,.23-.97,1,.05,1.35,.03,2.7-.05,4.04-.04,.82-.69,1.32-1.46,1.26-.82-.07-1.12-.59-1.11-1.35,0-.99,0-1.98,0-2.97,0-2.08,0-2.07-2.12-1.98-.42,.02-.57,.12-.57,.56,.02,1.77-.03,3.54,.03,5.3,.04,1.49,.96,2.43,2.43,2.65,1.15,.17,2.11-.19,3.01-1.27-.21,1,.21,1.14,.84,1.06,.33-.04,.67-.05,.99,0,.59,.09,.68-.18,.68-.7-.03-1.98-.01-3.96-.01-5.93Z"/>
          <path class="cls-8" d="M146.4,62.56c-1.19-1.27-3.03-1.15-4.78,.48,.28-1.12-.26-1.21-.97-1.13-.18,.02-.36,.03-.54,0-.74-.12-1.04,.09-1,.94,.08,1.79,.02,3.59,.02,5.39,0,2.05,0,2.03,2.09,1.98,.47-.01,.61-.13,.6-.6-.03-1.41-.03-2.81,0-4.22,.02-.86,.64-1.48,1.38-1.49,.78,0,1.28,.55,1.3,1.5,.02,.96,0,1.92,0,2.87,0,2,0,1.98,2.04,1.94,.52-.01,.66-.17,.65-.67-.03-1.59,.01-3.17-.02-4.76-.02-.81-.2-1.59-.79-2.23Z"/>
          <path class="cls-8" d="M101.99,55.3c0,1.92,0,1.89,1.93,1.89,.59,0,.78-.16,.76-.76-.04-1.26-.01-2.52-.01-3.77,0-.42,.03-.83,.28-1.2,.34-.51,.83-.65,1.41-.55,.59,.1,.91,.49,.93,1.05,.05,1.5,.05,2.99,.08,4.49,0,.28-.17,.78,.38,.72,.74-.08,1.53,.31,2.22-.22,.05-.04,.03-.17,.02-.26-.02-1.86,.05-3.72-.07-5.57-.11-1.75-1.76-2.81-3.48-2.42-.74,.17-1.3,.57-1.97,1.36,.24-1.08-.15-1.32-.9-1.21-.29,.04-.6,.04-.9,0-.58-.08-.7,.17-.69,.71,.03,1.92,.01,3.83,.01,5.75Z"/>
          <path class="cls-8" d="M96.87,48.62c-2.58,0-4.42,1.81-4.44,4.39-.01,2.55,1.77,4.37,4.31,4.4,2.68,.03,4.53-1.75,4.54-4.35,0-2.56-1.85-4.42-4.41-4.43Zm1.4,5.94c-.28,.63-.78,.93-1.5,.92-.73-.02-1.15-.41-1.42-1.04-.19-.45-.25-.92-.22-1.32-.02-.65,.05-1.21,.33-1.72,.29-.54,.71-.84,1.35-.85,.64,0,1.11,.27,1.38,.81,.52,1.04,.54,2.13,.07,3.2Z"/>
          <path class="cls-8" d="M182.94,61.72c-2.58,0-4.46,1.84-4.47,4.37,0,2.5,1.91,4.39,4.48,4.4,2.54,0,4.44-1.87,4.44-4.41,0-2.55-1.84-4.36-4.45-4.36Zm-.04,6.84c-1.06-.02-1.66-.89-1.67-2.43,0-.51,.04-1,.23-1.49,.26-.67,.73-1.02,1.42-1.04,.73-.02,1.24,.34,1.52,1.02,.2,.48,.23,.99,.28,1.42,0,1.59-.7,2.54-1.78,2.52Z"/>
          <path class="cls-8" d="M96.98,61.72c-2.71-.02-4.52,1.7-4.54,4.33-.02,2.57,1.8,4.42,4.38,4.44,2.57,.02,4.45-1.83,4.47-4.37,.01-2.54-1.79-4.38-4.31-4.4Zm-.14,6.84c-1.08,0-1.7-.91-1.7-2.48,0-1.56,.65-2.5,1.71-2.5,1.04,0,1.74,1.01,1.74,2.51,0,1.51-.68,2.47-1.76,2.47Z"/>
          <path class="cls-8" d="M101.99,42.49c0,1.6,0,1.54,1.65,1.63,.91,.05,1.1-.25,1.05-1.09-.07-1.25-.04-2.52,0-3.77,.03-.88,.63-1.47,1.39-1.45,.86,.02,1.2,.57,1.24,1.35,.02,.3,.04,.6,.04,.9,0,1.17,0,2.34,0,3.5,0,.34,.04,.62,.47,.54,.71-.14,1.51,.33,2.15-.28,.03-.03,0-.12,0-.18-.01-1.83,.03-3.66-.06-5.48-.08-1.57-1.22-2.54-2.79-2.56-1.05-.01-1.89,.4-2.67,1.44,.26-1.14-.23-1.29-.96-1.2-.3,.04-.6,.04-.9,0-.52-.07-.65,.15-.64,.65,.03,2.01,.01,4.01,.01,6.02Z"/>
          <path class="cls-8" d="M143.13,44.37c2.54,.04,4.45-1.84,4.45-4.38,0-2.56-1.85-4.4-4.43-4.39-2.62,0-4.43,1.79-4.43,4.36,0,2.57,1.79,4.38,4.4,4.41Zm-1.5-5.76c.27-.73,.78-1.15,1.54-1.14,.78,0,1.27,.49,1.5,1.2,.13,.39,.17,.82,.24,1.23-.06,.36-.1,.72-.18,1.07-.21,.95-.83,1.51-1.64,1.49-.78-.02-1.47-.64-1.6-1.55-.11-.77-.16-1.54,.12-2.3Z"/>
          <path class="cls-8" d="M113.49,55.18c-.29-.9-.93-.75-1.65-.74-.32,.11-.94-.29-1.12,.21-.17,.45,.17,.98,.48,1.39,.27,.36,.59,.67,1.01,.87,1.5,.7,3.01,.7,4.51,.05,.65-.28,1.11-.79,1.32-1.5,.46-1.54-.21-2.81-1.78-3.27-.77-.23-1.57-.35-2.35-.55-.29-.07-.56-.23-.56-.6,0-.29,.17-.49,.38-.56,.58-.17,1.26-.31,1.56,.39,.18,.42,.41,.43,.74,.43,.39,0,.78-.03,1.17,0,.64,.06,.78-.13,.55-.75-.52-1.41-2.23-2.22-4.14-1.88-1.1,.19-2.11,.58-2.56,1.71-.64,1.6,.24,2.98,2.12,3.41,.64,.14,1.3,.22,1.92,.42,.57,.18,.71,.84,.31,1.21-.44,.41-1.73,.33-1.92-.23Z"/>
          <path class="cls-8" d="M90.73,40.9c-.18,0-.36,.02-.54,0-.46-.05-.76,.04-.9,.57-.14,.52-.53,.83-1.12,.86-.67,.03-1.2-.18-1.49-.79-.51-1.09-.51-2.21,.06-3.27,.46-.85,1.84-1.01,2.25-.23,.39,.74,.88,.86,1.42,.75,.33,0,.52-.02,.69,0,.83,.12,.9-.24,.62-.9-.34-.8-.86-1.42-1.63-1.83-1.59-.84-3.83-.57-5.11,.63-1.31,1.22-1.74,3.4-.96,5.14,.75,1.68,2.13,2.46,3.92,2.51,1.53,.04,2.83-.46,3.64-1.85,.73-1.26,.54-1.59-.85-1.59Z"/>
          <path class="cls-8" d="M157.5,67.48c-.19,.7-.7,.99-1.42,.96-.76-.03-1.22-.46-1.44-1.14-.27-.82-.26-1.65,0-2.47,.21-.64,.63-1.08,1.35-1.14,.68-.06,1.16,.19,1.44,.83,.06,.15,.07,.4,.31,.38,.76-.04,1.85,.36,2.2-.17,.4-.61-.34-1.41-.86-1.99-.04-.04-.1-.07-.14-.11-1.42-1.18-3.78-1.26-5.36-.18-1.56,1.07-2.22,3.26-1.56,5.2,.61,1.8,2.49,3,4.42,2.83,2.13-.19,3.44-1.37,3.69-3.42-.69,0-1.38,0-2.06,0-.31,0-.47,.08-.56,.42Z"/>
          <path class="cls-8" d="M90.98,53.99c-.24,0-.48,.03-.72,0-.54-.09-.82,.1-1.04,.64-.43,1.04-1.81,1.08-2.46,.12-.56-.82-.58-2.61-.03-3.44,.55-.83,1.87-1,2.26-.2,.39,.79,.94,.75,1.4,.72,.4,0,.61-.02,.82,0,.62,.08,.79-.1,.56-.73-.38-1.01-1.02-1.74-2.02-2.15-1.81-.74-4.06-.21-5.15,1.2-1.27,1.64-1.3,4.09-.04,5.67,1.1,1.37,2.61,1.77,4.27,1.52,1.34-.2,2.4-.88,2.92-2.22,.41-1.05,.34-1.15-.78-1.15Z"/>
          <path class="cls-8" d="M142.36,57.36c1.66,.22,3.18-.15,4.17-1.67,.31-.48,.66-1.08,.43-1.58-.14-.32-.83-.07-1.27-.11-.12-.01-.24,.01-.36,0-.52-.06-.82,.05-1.05,.64-.39,1.04-1.85,1.06-2.48,.1-.54-.82-.53-2.65,.01-3.44,.55-.82,1.77-1,2.2-.22,.42,.78,.96,.81,1.49,.75,.32,0,.47,0,.62,0,.97,0,.96,0,.6-.95-.25-.67-.68-1.19-1.28-1.58-1.51-.99-3.7-.9-5.15,.22-1.4,1.08-1.97,3.13-1.38,4.96,.55,1.68,1.74,2.65,3.45,2.88Z"/>
          <path class="cls-8" d="M90.83,67.07c-.18,0-.36,.02-.54,0-.53-.07-.89,.03-1.05,.64-.15,.56-.66,.74-1.2,.75-.58,0-1.08-.2-1.34-.74-.53-1.09-.53-2.21,0-3.28,.45-.91,1.88-1.09,2.3-.23,.4,.81,.95,.75,1.39,.73,.39,0,.57-.02,.75,0,.77,.12,.86-.2,.61-.84-.38-.98-1.02-1.7-2.01-2.05-1.74-.61-3.41-.47-4.78,.82-1.39,1.32-1.67,3.02-1.06,4.8,.61,1.81,2.02,2.68,3.88,2.84,1.64,.14,3.17-.67,3.85-1.99,.6-1.18,.46-1.43-.8-1.43Z"/>
          <path class="cls-8" d="M158.59,55.15c.72,2.09,.72,2.07,2.92,2.04,.47,0,.7-.16,.84-.59,.8-2.37,1.6-4.74,2.44-7.1,.19-.54,.1-.71-.46-.66-.24,.02-.49,.04-.72,0-.95-.16-1.43,.18-1.65,1.18-.29,1.32-.78,2.6-1.23,4.05-.38-1.23-.7-2.27-1.02-3.31-.61-1.99-.6-1.97-2.68-1.93-.61,.01-.6,.18-.42,.67,.68,1.88,1.32,3.76,1.97,5.65Z"/>
          <path class="cls-8" d="M137.86,35.8c-.24,.03-.71,.26-.72-.33,0-.46,.12-.8,.63-.94,.32-.09,.87,.21,.92-.43,.03-.42,0-.84,0-1.26,0-.24-.2-.24-.38-.27-2.24-.41-3.62,.59-3.83,2.8-.03,.25,0,.51-.37,.44-.61-.1-.78,.18-.72,.74,.05,.47-.18,1.09,.69,.98,.42-.06,.39,.25,.39,.52,0,.9,0,1.8,0,2.7v1.35c0,2.02,0,1.99,1.99,2,.65,0,.71-.25,.71-.78-.03-1.68,0-3.35-.02-5.03,0-.53,.05-.89,.7-.76,.75,.15,.88-.23,.89-.9,.01-.68-.19-.91-.86-.83Z"/>
          <path class="cls-8" d="M152.47,56.05c.01-.57,0-.96-.77-.89-.55,.05-.76-.37-.75-.9,.01-.9,.05-1.8-.01-2.69-.05-.77,.12-1.18,.99-1.02,.65,.12,.57-.37,.52-.74-.04-.37,.3-1.05-.51-.94-.98,.13-1.09-.37-1-1.13,.03-.24-.02-.48,.01-.72,.1-.65-.2-.79-.8-.78-1.81,.02-1.83,0-1.81,1.8,0,.58-.07,.84-.75,.84-.63,0-.3,.59-.32,.91-.02,.25-.26,.81,.3,.74,.92-.11,.76,.45,.76,.98,0,.54,0,1.08,0,1.62,0,.42,0,.84,0,1.26,0,2.25,.61,2.85,2.88,2.84,1.25,0,1.23,0,1.26-1.17Z"/>
          <path class="cls-8" d="M173.85,63.59c.8,.11,.37-.63,.44-.98,.06-.32,.14-.8-.47-.69-.95,.18-1.11-.31-1-1.09,.04-.26-.02-.54,.01-.81,.08-.56-.14-.7-.69-.71-1.93-.01-1.95-.03-1.95,1.88,0,.48-.02,.83-.65,.73-.37-.06-.5,.18-.43,.49,.09,.4-.28,1.14,.27,1.15,1.03,.02,.79,.63,.8,1.18,.01,.45,0,.9,0,1.35,0,.54,0,1.08,0,1.62,.02,1.85,.77,2.59,2.64,2.63,1.45,.03,1.52-.07,1.49-1.53,0-.46-.12-.64-.6-.59-.65,.06-.92-.27-.89-.92,.03-.84,.03-1.68,0-2.52-.03-.75-.05-1.33,1.03-1.18Z"/>
          <path class="cls-8" d="M110.7,37.45c.94-.02,.82,.51,.81,1.08,0,.54,0,1.08,0,1.62,0,.48,0,.96,0,1.44,0,1.92,.72,2.62,2.66,2.65,1.38,.02,1.43-.05,1.42-1.42,0-.44-.02-.75-.61-.69-.65,.07-.91-.29-.9-.92,.02-.81,.04-1.62,0-2.42-.04-.81-.06-1.48,1.1-1.29,.64,.1,.4-.48,.38-.76-.02-.31,.29-.97-.37-.86-1.3,.22-1.14-.58-1.11-1.36,.01-.21-.02-.42,0-.63,.07-.53-.09-.72-.67-.72-1.9,0-1.91-.03-1.9,1.84,0,.53,.02,.96-.72,.84-.48-.08-.46,.32-.4,.59,.07,.36-.3,1.04,.3,1.02Z"/>
          <path class="cls-8" d="M122.7,55.19c-.64-.03-.89-.35-.87-.98,.03-.87,.05-1.74,0-2.6-.04-.72,0-1.24,.94-1.06,.51,.1,.56-.29,.47-.62-.09-.37,.36-1.12-.38-1.04-1.19,.12-1.05-.56-1.02-1.28,.01-.3-.02-.6,0-.9,.03-.35-.11-.49-.46-.46-.27,.02-.54,0-.81,0q-1.31,0-1.31,1.31c0,.21-.01,.42,0,.63,.03,.4-.01,.69-.55,.67-.75-.02-.41,.59-.43,.93-.02,.29-.23,.82,.41,.76,.61-.06,.59,.3,.58,.72,0,1.32-.03,2.64,.02,3.95,.05,1.28,.77,1.95,2.05,2.01,.42,.02,.84-.01,1.26,0,.49,.02,.81-.2,.64-.68-.16-.46,.59-1.3-.53-1.35Z"/>
          <path class="cls-8" d="M129.22,49.26c.04-.41-.15-.47-.52-.51-.9-.08-1.4,.53-2.16,1.39,.47-1.46-.31-1.32-.99-1.3-.27,0-.54,.03-.81,0-.57-.07-.71,.18-.7,.72,.03,1.92,.01,3.84,.01,5.75s0,1.84,1.88,1.88c.72,.02,.82-.24,.82-.87,0-1.25-.15-2.52,.11-3.76,.17-.81,.64-1.47,1.48-1.44,.92,.03,.94-.41,.88-1.06-.02-.27-.02-.54,0-.81Z"/>
          <path class="cls-8" d="M130.46,36.88c-.02-.21-.02-.42,0-.63,.06-.5-.2-.61-.64-.59-.87,.04-1.48,.54-2.26,1.48,.49-1.51-.31-1.34-.98-1.32-.27,0-.54,.03-.81,0-.58-.08-.69,.17-.69,.71,.03,1.85,.01,3.71,.01,5.57,0,2.06,0,2.04,2.07,2.02,.54,0,.63-.2,.62-.67-.03-1.05-.04-2.1,0-3.14,.04-1.36,.62-2.22,1.72-2.23,.99,0,1.03-.47,.96-1.18Z"/>
          <path class="cls-8" d="M148.33,42.11c0,2.06,0,2.04,2.09,1.99,.46-.01,.62-.12,.61-.6-.03-1.14-.03-2.28,0-3.42,.03-1.19,.69-2.06,1.81-2.05,.92,0,.95-.39,.88-1.04-.02-.21-.03-.42,0-.63,.1-.67-.27-.75-.8-.7-.86,.09-1.47,.58-2.03,1.29,.25-1.17-.4-1.24-1.2-1.14-.21,.03-.42,.03-.63,0-.57-.08-.77,.11-.75,.72,.04,1.86,.02,3.72,.02,5.57Z"/>
          <path class="cls-8" d="M155.27,57.19c.51,0,.68-.14,.66-.65-.04-1.17-.01-2.34-.01-3.51v-2.25c0-1.99,0-1.96-1.97-1.95-.63,0-.74,.24-.73,.79,.03,1.86,.01,3.72,.01,5.57,0,2.04,0,2.02,2.03,1.99Z"/>
          <path class="cls-8" d="M177.84,63.88c0-2.08,0-2.06-2.11-1.98-.43,.02-.57,.12-.56,.55,.03,1.22,0,2.45,0,3.68,0,.72,0,1.43,0,2.15,0,1.96,0,1.93,1.95,1.93,.64,0,.73-.23,.72-.78-.03-1.85-.01-3.71-.01-5.56Z"/>
          <path class="cls-8" d="M151.02,63.89c0-2.02,0-1.99-2.02-1.99-.59,0-.69,.2-.68,.72,.03,1.17,.01,2.34,.01,3.51v2.07c0,2.07,0,2.05,2.06,2.02,.53,0,.64-.17,.64-.66-.03-1.89-.01-3.78-.01-5.67Z"/>
          <path class="cls-8" d="M153.17,46.76c0,.84,.62,1.47,1.47,1.46,.81-.01,1.42-.62,1.43-1.41,.01-.85-.61-1.45-1.48-1.44-.83,0-1.41,.58-1.42,1.4Z"/>
          <path class="cls-8" d="M149.83,58.43c-.87-.06-1.57,.49-1.64,1.3-.07,.78,.52,1.44,1.33,1.5,.87,.07,1.57-.48,1.64-1.29,.07-.77-.53-1.45-1.33-1.51Z"/>
          <path class="cls-8" d="M176.45,58.43c-.81,.02-1.43,.62-1.44,1.4,0,.82,.65,1.42,1.52,1.4,.84-.02,1.44-.6,1.44-1.39,0-.81-.66-1.42-1.53-1.41Z"/>
        </g>
      </g>
      <rect class="cls-8" x="215.46" width=".5" height="87.18"/>
    </g>
  </g>
</svg>